PathFileType	4	(X/Y/Z)	C:/Users/cmwille/Documents/OptiTrack/OpenSim_Lab5_04202021/group4_jump_2.trc
DataRate	CameraRate	NumFrames	NumMarkers	Units	OrigDataRate	OrigDataStartFrame	OrigNumFrames
200	200	6	39	m	200	420	841
Frame#	Time	L.ASIS			L.Acromium			L.Ankle.Lat			L.Ankle.Med			L.Heel			L.Knee.Lat			L.Knee.Med			L.Midfoot.Lat			L.Midfoot.Sup			L.Shank.Front			L.Shank.Rear			L.Shank.Upper			L.Thigh.Front			L.Thigh.Rear			L.Thigh.Upper			L.Toe.Lat			L.Toe.Med			L.Toe.Tip			R.ASIS			R.Acromium			R.Ankle.Lat			R.Ankle.Med			R.Heel			R.Knee.Lat			R.Knee.Med			R.Midfoot.Lat			R.Midfoot.Sup			R.Shank.Front			R.Shank.Rear			R.Shank.Upper			R.Thigh.Front			R.Thigh.Rear			R.Thigh.Upper			R.Toe.Lat			R.Toe.Med			R.Toe.Tip			Sternum			Top.Head			V.Sacral			
		X1	Y1	Z1	X2	Y2	Z2	X3	Y3	Z3	X4	Y4	Z4	X5	Y5	Z5	X6	Y6	Z6	X7	Y7	Z7	X8	Y8	Z8	X9	Y9	Z9	X10	Y10	Z10	X11	Y11	Z11	X12	Y12	Z12	X13	Y13	Z13	X14	Y14	Z14	X15	Y15	Z15	X16	Y16	Z16	X17	Y17	Z17	X18	Y18	Z18	X19	Y19	Z19	X20	Y20	Z20	X21	Y21	Z21	X22	Y22	Z22	X23	Y23	Z23	X24	Y24	Z24	X25	Y25	Z25	X26	Y26	Z26	X27	Y27	Z27	X28	Y28	Z28	X29	Y29	Z29	X30	Y30	Z30	X31	Y31	Z31	X32	Y32	Z32	X33	Y33	Z33	X34	Y34	Z34	X35	Y35	Z35	X36	Y36	Z36	X37	Y37	Z37	X38	Y38	Z38	X39	Y39	Z39
420	2.1	0.380461	0.693661	2.17267	0.452613	1.09627	2.40289	0.493493	0.120518	2.14322	0.381063	0.125969	2.16802	0.427499	0.0790837	2.0507	0.518398	0.437896	2.40799	0.379674	0.412579	2.42272	0.515363	0.0461137	2.16981	0.388109	0.0420358	2.20728	0.469311	0.339728	2.42918	0.500173	0.279923	2.34744	0.523043	0.38592	2.37804	0.505257	0.577424	2.2709	0.467646	0.41074	2.27663	0.469548	0.456145	2.21001	0.523384	0.0577834	2.27886	0.393254	0.0509568	2.28572	0.452175	0.0630744	2.34937	0.077427	0.736104	2.13151	0.0434394	1.07138	2.42416	-0.0384999	0.13095	2.15091	0.0722343	0.129431	2.18238	0.0284355	0.076963	2.05767	-0.0515285	0.439049	2.41371	0.0977846	0.444278	2.43517	-0.066554	0.0456111	2.17075	0.0586426	0.0418864	2.21561	0.00028893	0.367267	2.43883	-0.020776	0.286331	2.36691	-0.0556045	0.388542	2.38902	-0.0173928	0.624164	2.28266	-0.035926	0.453982	2.27962	-0.0158038	0.48215	2.21485	-0.0906301	0.0407747	2.25451	0.0423476	0.0487793	2.28778	-0.0189699	0.067704	2.35965	0.265675	0.851188	2.45862	0.264213	1.35332	2.66408	0.243693	0.759369	1.95872
421	2.105	0.380491	0.693815	2.17326	0.452502	1.09687	2.4021	0.493438	0.120647	2.14339	0.380922	0.125895	2.16824	0.427442	0.0792656	2.05077	0.51819	0.437421	2.40893	0.379505	0.412052	2.42354	0.515334	0.0461795	2.16983	0.388161	0.0420018	2.20732	0.469145	0.339274	2.42994	0.500063	0.279713	2.34798	0.522883	0.385709	2.37881	0.504934	0.577057	2.27194	0.467489	0.410478	2.27745	0.469912	0.456109	2.21117	0.523359	0.05778	2.27889	0.393279	0.0509188	2.28574	0.452246	0.0629688	2.34939	0.0769659	0.736299	2.13263	0.0431889	1.07192	2.42376	-0.0382133	0.131201	2.15121	0.0727227	0.129451	2.18295	0.0288158	0.0772827	2.0579	-0.0512355	0.43853	2.41495	0.0981265	0.443502	2.43596	-0.0664851	0.045815	2.17081	0.0587077	0.0418041	2.21582	0.000672529	0.366797	2.43988	-0.0203369	0.285874	2.36776	-0.0551586	0.387969	2.39018	-0.0172418	0.623685	2.28399	-0.0358076	0.453532	2.28094	-0.0158782	0.481864	2.21593	-0.0905703	0.0408616	2.25451	0.0423362	0.0487173	2.28791	-0.0190841	0.0675002	2.35984	0.265865	0.852268	2.45921	0.264105	1.35514	2.66272	0.243344	0.75908	1.95961
422	2.11	0.380166	0.693787	2.17433	0.452408	1.09773	2.40126	0.49336	0.120787	2.14356	0.380877	0.125894	2.16839	0.427409	0.0794472	2.05086	0.517944	0.43702	2.40974	0.379264	0.411466	2.4243	0.515319	0.0462395	2.16988	0.38817	0.0419516	2.20737	0.46886	0.338727	2.4305	0.499963	0.279421	2.3485	0.522545	0.385218	2.37957	0.504665	0.576761	2.2729	0.467229	0.410104	2.27826	0.469474	0.455552	2.21219	0.523349	0.0577573	2.27893	0.393277	0.0508551	2.28576	0.452279	0.0629126	2.34944	0.0764982	0.736653	2.13379	0.0429665	1.07265	2.4233	-0.0378539	0.131486	2.15149	0.0730888	0.129801	2.18394	0.0292033	0.0775135	2.05822	-0.0509538	0.438018	2.41616	0.0984488	0.443421	2.43751	-0.0664161	0.0460188	2.17087	0.0587571	0.0416656	2.21599	0.00100075	0.366153	2.44089	-0.0200428	0.285528	2.36864	-0.0551677	0.387941	2.39123	-0.0170751	0.623256	2.28537	-0.0356575	0.453165	2.28212	-0.0159621	0.481663	2.217	-0.0904954	0.0409478	2.25447	0.0422941	0.048643	2.28804	-0.0191737	0.0673395	2.36002	0.266061	0.853412	2.45972	0.264002	1.35718	2.66128	0.243014	0.758932	1.96056
423	2.115	0.379754	0.693851	2.17531	0.452244	1.09871	2.40037	0.493337	0.120899	2.14372	0.380842	0.125899	2.16852	0.427428	0.0796354	2.05092	0.517679	0.436521	2.41058	0.379086	0.410917	2.4251	0.515413	0.0469565	2.1702	0.388194	0.0419329	2.20741	0.468701	0.33845	2.43119	0.499742	0.279054	2.34901	0.522373	0.385025	2.38024	0.504374	0.576558	2.27394	0.466898	0.409954	2.27909	0.468407	0.454612	2.21307	0.52337	0.0577441	2.27897	0.39331	0.0508544	2.2858	0.452323	0.0628196	2.34949	0.0760248	0.73717	2.13498	0.0427813	1.0735	2.42288	-0.0375246	0.131715	2.15178	0.0734114	0.129863	2.18435	0.0296409	0.0778444	2.05849	-0.050664	0.437435	2.41729	0.0987324	0.442505	2.43825	-0.0663472	0.0462227	2.17093	0.0588133	0.0415218	2.21621	0.00125703	0.365686	2.44188	-0.0196596	0.285074	2.36943	-0.0545988	0.387249	2.39232	-0.0169765	0.622966	2.28674	-0.0355167	0.452766	2.28341	-0.016056	0.481549	2.21805	-0.0902615	0.0415827	2.25526	0.0422944	0.0485969	2.28814	-0.0192424	0.0671329	2.36022	0.26617	0.854836	2.46003	0.263906	1.35945	2.65976	0.24273	0.758944	1.96158
424	2.12	0.379506	0.694094	2.17626	0.452079	1.1	2.39945	0.493154	0.120867	2.14379	0.380798	0.125862	2.16868	0.427461	0.0798218	2.05101	0.517417	0.436167	2.41137	0.378806	0.41052	2.42586	0.515132	0.046655	2.16999	0.388228	0.0418953	2.20742	0.468462	0.338001	2.43179	0.499626	0.278828	2.34945	0.522037	0.384652	2.38092	0.504082	0.576366	2.27498	0.469203	0.411734	2.28029	0.466883	0.453428	2.21384	0.523369	0.0575564	2.27901	0.393341	0.0508173	2.28582	0.452361	0.0627243	2.34955	0.0755466	0.737852	2.1362	0.0425549	1.07457	2.42246	-0.0370917	0.131937	2.15206	0.0737379	0.129853	2.18472	0.030103	0.0782329	2.05875	-0.0504474	0.437	2.41838	0.0988992	0.442286	2.43941	-0.0662783	0.0464265	2.17099	0.0588888	0.0414141	2.21642	0.00151801	0.365063	2.44272	-0.0193622	0.284757	2.37013	-0.0547347	0.38723	2.39325	-0.0170221	0.622595	2.28812	-0.0357785	0.452267	2.28552	-0.0161603	0.481524	2.21909	-0.0903328	0.0411401	2.25443	0.0422362	0.0485218	2.28829	-0.0193547	0.0669226	2.36041	0.266212	0.856509	2.46063	0.263817	1.36196	2.65816	0.242373	0.759087	1.9625
425	2.125	0.379348	0.694427	2.17727	0.451974	1.10145	2.39853	0.493127	0.120992	2.14395	0.38076	0.125878	2.16883	0.427466	0.0800056	2.05109	0.517059	0.435699	2.4121	0.37841	0.409998	2.42651	0.515131	0.0467156	2.17003	0.388304	0.0418569	2.20749	0.46821	0.337507	2.43229	0.499447	0.278621	2.34989	0.521806	0.384396	2.38165	0.503744	0.576141	2.27592	0.470408	0.41262	2.2815	0.465077	0.452139	2.2145	0.52339	0.0575339	2.27908	0.393386	0.0507945	2.28584	0.452403	0.0626066	2.34961	0.0750645	0.738701	2.13746	0.0423043	1.07601	2.42208	-0.0367306	0.132192	2.1524	0.0740435	0.129812	2.18512	0.0305463	0.0785696	2.05898	-0.050151	0.436468	2.41945	0.0992428	0.441679	2.44034	-0.0662094	0.0466304	2.17105	0.0589477	0.0413078	2.21665	0.00178627	0.36469	2.44363	-0.0191035	0.284362	2.37082	-0.0542912	0.386602	2.39417	-0.0170464	0.622441	2.28937	-0.0353206	0.45225	2.28573	-0.0162756	0.481591	2.2201	-0.0902706	0.0412087	2.25439	0.0421544	0.0485845	2.28849	-0.0194795	0.0667213	2.36062	0.26628	0.858396	2.46101	0.263735	1.3647	2.65648	0.242125	0.759344	1.9636
